<?xml version="1.0" encoding="utf-8" standalone="no"?>
<!DOCTYPE svg PUBLIC "-//W3C//DTD SVG 1.1//EN" "http://www.w3.org/Graphics/SVG/1.1/DTD/svg11.dtd">
<svg version="1.1" width="325.9pt" height="62.16pt" viewBox="0 0 325.92 62.16" xmlns="http://www.w3.org/2000/svg">
  <defs />
  <g id="CASE">
    <path d="M35.79093,9.820158 C34.842392,9.821767 33.866673,9.89116 32.878544,10.026071 C32.826645,10.033157 32.77472,10.040422 32.722748,10.047926 C31.816252,10.178803 30.897835,10.381776 29.981209,10.639456 C29.893812,10.664025 29.806433,10.689091 29.719088,10.714876 C28.860044,10.96847 28.004448,11.291574 27.161263,11.663676 C27.056639,11.709848 26.952206,11.756774 26.848055,11.804753 C26.043541,12.175382 25.25594,12.608916 24.4908,13.087743 C24.384155,13.154484 24.277943,13.222103 24.172295,13.290818 C23.431112,13.77289 22.717613,14.308809 22.037235,14.886415 C21.938152,14.97053 21.839773,15.05553 21.742159,15.141464 C21.076538,15.727458 20.44662,16.356928 19.860306,17.022282 C19.77484,17.119267 19.690302,17.217014 19.606632,17.315454 C19.027092,17.9973 18.48923,18.712334 18.005627,19.455336 C17.939392,19.557096 17.874176,19.659382 17.809776,19.762075 C17.327076,20.531797 16.890272,21.32436 16.516886,22.133976 C16.472609,22.229986 16.429222,22.326235 16.386492,22.422653 C16.00907,23.274273 15.682769,24.139145 15.42544,25.00655 C15.403127,25.081764 15.381331,25.157 15.359944,25.232275 C15.096275,26.16029 14.894661,27.09431 14.757492,28.010595 C14.601778,29.050764 14.529113,30.068077 14.531062,31.080887 C14.53291,32.04114 14.6018305,32.99735 14.736243,33.98668 C14.743646,34.04117 14.751248,34.09576 14.759112,34.15038 C14.889871,35.05858 15.092972,35.97394 15.350088,36.88933 C15.375086,36.97833 15.400595,37.067326 15.42685,37.15628 C15.679894,38.013603 16.002403,38.867104 16.373814,39.70834 C16.421095,39.815434 16.469168,39.92233 16.518343,40.028923 C16.887966,40.830124 17.319872,41.614494 17.796612,42.376667 C17.86609,42.487743 17.936522,42.598347 18.008139,42.708344 C18.487555,43.444656 19.020138,44.153576 19.593863,44.82985 C19.682533,44.934372 19.772186,45.038113 19.86288,45.140995 C20.444801,45.801125 21.069584,46.425987 21.729774,47.007824 C21.832869,47.098682 21.936827,47.18849 22.041561,47.277325 C22.718292,47.85129 23.427473,48.384415 24.164253,48.86401 C24.27278,48.934654 24.381907,49.004135 24.49149,49.072697 C25.254969,49.550373 26.040638,49.98334 26.84331,50.353367 C26.948793,50.401997 27.054571,50.44954 27.160542,50.496307 C28.00194,50.867653 28.855555,51.19039 29.712975,51.443558 C29.803513,51.470287 29.894094,51.496246 29.984676,51.521675 C30.899212,51.7784 31.81395,51.981216 32.720863,52.111485 C32.77495,52.11925 32.829006,52.126762 32.88297,52.134087 C33.872337,52.26835 34.831627,52.339878 35.790936,52.33984 C36.74987,52.339806 37.708828,52.268253 38.697765,52.134163 C38.752113,52.126793 38.806545,52.119236 38.861004,52.111416 C39.770073,51.98091 40.68705,51.777626 41.60377,51.519688 C41.690937,51.495163 41.778095,51.470142 41.865215,51.444412 C42.723114,51.19103 43.57725,50.868587 44.41909,50.496937 C44.52618,50.449657 44.633076,50.40158 44.73967,50.3524 C45.540874,49.982773 46.325245,49.550877 47.087414,49.07413 C47.198494,49.00465 47.309097,48.934216 47.41909,48.86259 C48.156235,48.38259 48.86582,47.849167 49.542854,47.274757 C49.645725,47.187477 49.74785,47.09925 49.849136,47.01001 C50.511112,46.426804 51.137558,45.80037 51.720753,45.138386 C51.80999,45.037098 51.898212,44.934975 51.985493,44.8321 C52.5599,44.155067 53.093414,43.445507 53.57326,42.708317 C53.64486,42.59832 53.715263,42.487705 53.784737,42.376625 C54.261448,41.61444 54.69438,40.83038 55.0622,40.02864 C55.111134,39.921974 55.15892,39.81499 55.206047,39.70786 C55.32756,39.431618 55.444687,39.154373 55.554245,38.875717 C54.5313,38.875717 53.508347,38.875717 52.485397,38.875717 C51.027405,42.07783 48.43561,44.94144 45.395557,46.803776 C42.35551,48.66611 38.867203,49.527172 35.790928,49.50536 C35.79087,49.50536 35.790817,49.50536 35.790756,49.50536 C35.790703,49.50536 35.79065,49.505363 35.79059,49.505363 C31.492859,49.62104 26.322285,47.66631 22.762009,44.108757 C19.201735,40.5512 17.251759,35.390823 17.376287,31.065014 C17.384733,30.771635 17.402721,30.482096 17.43679,30.171976 C23.082302,28.407816 28.727814,26.643654 34.373325,24.879492 C34.373325,26.946266 34.373325,29.013039 34.373325,31.079813 C35.231396,30.811754 36.436966,30.435265 37.208168,30.194315 C37.979362,29.953365 38.31619,29.847954 39.714516,29.41099 C41.11284,28.97403 43.572662,28.205517 44.937054,27.779152 C46.301445,27.352787 46.570396,27.26857 47.90117,26.852638 C49.231934,26.436707 51.624516,25.68906 53.24272,25.183447 C54.860928,24.677834 55.70477,24.414255 55.946823,24.338598 C56.188885,24.262941 55.82916,24.375208 55.950855,24.337135 C55.65435,23.449589 55.294273,22.567719 54.870533,21.704811 C54.86907,21.7053 54.867607,21.705786 54.866146,21.706272 C51.929813,15.364847 45.092503,10.762067 38.758984,10.01662 C38.748573,10.015395 38.738167,10.01418 38.72776,10.01297 C37.727848,9.89662 36.74712,9.816433 35.79093,9.820158 z M35.79093,12.654633 C41.71945,12.423959 49.08277,16.296026 52.125412,22.56284 C47.153,24.116674 42.180584,25.670507 37.208168,27.224342 C37.208168,25.157446 37.208168,23.090551 37.208168,21.023655 C36.012104,21.39743 35.820507,21.457258 34.373325,21.90952 C32.926147,22.36178 30.223385,23.206476 27.222687,24.14414 C24.221989,25.081806 20.923347,26.112444 17.863062,27.068703 C19.180325,18.921835 28.31969,12.145773 35.79093,12.654633 z" stroke="#000000" stroke-width="0" fill="#000000" fill-opacity="1" />
    <path d="M65.191986,39.197323 C65.17594,40.287228 65.628075,41.564297 66.55481,42.48141 C67.018166,42.93997 67.60018,43.308533 68.123055,43.510117 C68.645935,43.7117 69.109665,43.7463 69.536545,43.772846 C71.43886,43.89115 72.609245,43.84961 73.889114,43.835793 C75.16898,43.82197 76.55835,43.835873 77.94778,43.835793 C79.3372,43.835712 80.726685,43.82165 82.00644,43.835793 C83.28619,43.849937 84.45621,43.892284 86.35956,43.77154 C86.78666,43.744446 87.2507,43.70914 87.77249,43.510117 C88.29429,43.311096 88.87384,42.94836 89.344986,42.47722 C89.81614,42.006073 90.17887,41.426514 90.37789,40.904716 C90.57691,40.382923 90.61222,39.918888 90.63931,39.49178 C90.76006,37.58844 90.71769,36.418407 90.70357,35.13866 C90.689445,33.858913 90.70357,32.46946 90.70357,31.08 C90.70357,29.690542 90.689445,28.301083 90.70357,27.02134 C90.71769,25.741592 90.76006,24.57156 90.63931,22.668219 C90.61222,22.241112 90.57691,21.777077 90.37789,21.255281 C90.17887,20.733486 89.81614,20.15393 89.344986,19.682783 C88.87384,19.211637 88.29429,18.848904 87.77249,18.649881 C87.2507,18.450861 86.78667,18.41555 86.35956,18.388456 C84.456215,18.267712 83.28618,18.310083 82.00644,18.324207 C80.72669,18.338331 79.337234,18.324207 77.94778,18.324207 C76.55832,18.324207 75.16886,18.338331 73.889114,18.324207 C72.60937,18.310083 71.43934,18.267712 69.535995,18.388454 C69.10888,18.41555 68.64485,18.45086 68.123055,18.649881 C67.601265,18.848906 67.02172,19.211643 66.55056,19.682783 C66.0794,20.153923 65.71663,20.733465 65.517654,21.255281 C65.31869,21.777098 65.28353,22.241192 65.25647,22.668314 C65.135864,24.571714 65.17612,25.740892 65.191986,27.02134 C65.20785,28.301785 65.19935,29.6935 65.19503,31.066092 C65.18639,33.811275 65.19452,36.47996 65.191986,39.197323 z M67.51122,39.197323 C67.51245,36.492287 67.50851,33.78415 67.512695,31.080887 C67.514786,29.729256 67.51892,28.378841 67.51122,27.02134 C67.50352,25.663837 67.48398,24.299246 67.54252,22.98143 C67.55565,22.685715 67.572716,22.392353 67.67405,22.10898 C67.7754,21.825605 67.961006,21.552221 68.190506,21.322731 C68.420006,21.09324 68.69338,20.907646 68.97675,20.80628 C69.260124,20.704914 69.55349,20.687777 69.84921,20.674625 C71.16703,20.616022 72.53157,20.636587 73.889114,20.643442 C75.24666,20.650297 76.59721,20.643442 77.94778,20.643442 C79.29833,20.643442 80.648895,20.650297 82.00644,20.643442 C83.36398,20.636587 84.728516,20.616022 86.04633,20.674625 C86.34206,20.687777 86.63542,20.704912 86.91879,20.80628 C87.20217,20.907646 87.475555,21.09324 87.70505,21.322731 C87.93453,21.552221 88.12013,21.825603 88.2215,22.10898 C88.32286,22.392355 88.34,22.685719 88.35315,22.981438 C88.41175,24.299255 88.39119,25.663792 88.38434,27.02134 C88.37748,28.378885 88.38434,29.729443 88.38434,31.08 C88.38434,32.430557 88.37748,33.781113 88.38434,35.13866 C88.39119,36.49621 88.41175,37.860744 88.35315,39.178566 C88.34,39.47428 88.32286,39.767647 88.2215,40.05102 C88.12013,40.334396 87.93453,40.60778 87.70505,40.83727 C87.475555,41.066757 87.20217,41.252354 86.91879,41.35372 C86.63542,41.455086 86.34205,41.472225 86.04633,41.485374 C84.728516,41.54398 83.364,41.52341 82.00644,41.516556 C80.64888,41.509705 79.29827,41.516575 77.94778,41.516556 C76.59728,41.51654 75.24691,41.509632 73.889114,41.516556 C72.53132,41.523483 71.1661,41.544235 69.850266,41.48508 C69.555,41.471806 69.262215,41.45451 68.97675,41.35372 C68.6913,41.25293 68.41317,41.068645 68.18802,40.839367 C67.737724,40.38081 67.49936,39.74227 67.51122,39.197323 z" stroke="#000000" stroke-width="0" fill="#000000" fill-opacity="1" />
    <path d="M77.91234,22.38287 C76.21193,22.38287 74.511536,22.38287 72.81113,22.38287 C72.81113,28.180958 72.81113,33.979042 72.81113,39.777134 C73.54385,39.777134 74.27658,39.777134 75.00931,39.777134 C75.00931,37.4117 75.00931,35.046272 75.00931,32.680847 C76.16812,32.680847 77.32695,32.680847 78.48577,32.680847 C79.62468,35.046272 80.76359,37.4117 81.9025,39.777134 C82.67903,39.777134 83.45556,39.777134 84.232086,39.777134 C84.23608,39.729347 84.24005,39.68156 84.24403,39.633774 C83.013535,37.15684 81.783035,34.679913 80.552536,32.202984 C81.030396,31.995909 81.468445,31.745028 81.86666,31.450346 C82.26488,31.155663 82.60735,30.817175 82.89407,30.434883 C83.180786,30.052591 83.40578,29.626495 83.56905,29.156595 C83.73232,28.686697 83.81396,28.16901 83.81396,27.603539 C83.81396,26.727453 83.660645,25.96486 83.35401,25.315762 C83.047386,24.666662 82.62726,24.127073 82.09364,23.696995 C81.55207,23.266916 80.922874,22.944359 80.206085,22.729319 C79.48929,22.51428 78.7247,22.398798 77.91234,22.38287 z M77.97207,30.864962 C76.98448,30.864962 75.996895,30.864962 75.00931,30.864962 C75.00931,28.64289 75.00931,26.420822 75.00931,24.198753 C75.97698,24.198753 76.944664,24.198753 77.91234,24.198753 C78.44595,24.206717 78.93775,24.28238 79.38774,24.42574 C79.83773,24.569098 80.22599,24.780155 80.552536,25.05891 C80.879074,25.345627 81.13394,25.698051 81.317116,26.116184 C81.5003,26.534315 81.59189,27.022135 81.59189,27.579643 C81.59189,28.105293 81.496315,28.569221 81.30517,28.971424 C81.11402,29.373625 80.85518,29.714104 80.52864,29.992859 C80.19414,30.271614 79.80786,30.48466 79.36982,30.632002 C78.93178,30.779345 78.46586,30.856997 77.97207,30.864962 z" stroke="#000000" stroke-width="0" fill="#000000" fill-opacity="1" />
    <path d="M108.71567,32.04905 C105.92972,35.14455 103.14377,38.240047 100.35782,41.33555 C100.35782,42.112343 100.35782,42.889137 100.35782,43.66593 C105.92972,43.66593 111.50162,43.66593 117.07352,43.66593 C117.07352,42.784008 117.07352,41.902084 117.07352,41.020157 C112.80406,41.020157 108.53461,41.020157 104.26515,41.020157 C106.54881,38.543755 108.83248,36.067356 111.11614,33.590958 C111.7586,32.89009 112.36894,32.186302 112.94716,31.479595 C113.52537,30.772884 114.03642,30.057417 114.48031,29.333187 C114.912506,28.608957 115.2571,27.875965 115.514084,27.134214 C115.77107,26.392464 115.89956,25.64195 115.89956,24.882677 C115.89956,23.866419 115.72143,22.926088 115.36514,22.061684 C115.00887,21.19728 114.497826,20.449688 113.832,19.818907 C113.166176,19.188126 112.35142,18.6946 111.387726,18.338324 C110.424034,17.98205 109.34061,17.803913 108.13745,17.803913 C106.82916,17.803913 105.66397,18.014172 104.64188,18.434694 C103.619774,18.855215 102.75829,19.42175 102.05742,20.134298 C101.34488,20.846848 100.8017,21.679127 100.42791,22.631138 C100.05411,23.58315 99.86721,24.596489 99.86721,25.671152 C100.95356,25.671152 102.0399,25.671152 103.12624,25.671152 C103.12624,24.876835 103.228455,24.158447 103.43288,23.515984 C103.6373,22.873522 103.94977,22.32451 104.370285,21.868946 C104.77912,21.425062 105.29601,21.08047 105.92095,20.835165 C106.5459,20.589863 107.28473,20.46721 108.13745,20.46721 C108.83832,20.46721 109.46618,20.58694 110.02103,20.826405 C110.57588,21.065868 111.051895,21.39002 111.44905,21.798859 C111.834526,22.207697 112.12948,22.689545 112.33389,23.244398 C112.538315,23.799252 112.64053,24.392069 112.64053,25.02285 C112.64053,25.536821 112.57628,26.036188 112.447784,26.520956 C112.3193,27.005722 112.103195,27.516771 111.799484,28.054104 C111.49577,28.603115 111.09277,29.198853 110.590485,29.841316 C110.0882,30.483778 109.463264,31.219688 108.71567,32.04905 z" stroke="#000000" stroke-width="0" fill="#000000" fill-opacity="1" />
    <path d="M130.2323,43.66593 C131.3128,43.66593 132.39331,43.66593 133.47382,43.66593 C133.47382,35.162067 133.47382,26.658209 133.47382,18.154346 C133.38622,18.154346 133.2986,18.154346 133.211,18.154346 C129.99284,19.392546 126.7747,20.630745 123.55654,21.868946 C123.55654,22.856 123.55654,23.843056 123.55654,24.830112 C125.7818,23.983229 128.00705,23.136349 130.2323,22.289465 C130.2323,29.414955 130.2323,36.540443 130.2323,43.66593 z" stroke="#000000" stroke-width="0" fill="#000000" fill-opacity="1" />
    <path d="M151.76646,43.66593 C152.84697,43.66593 153.92747,43.66593 155.00798,43.66593 C155.00798,35.162067 155.00798,26.658209 155.00798,18.154346 C154.92036,18.154346 154.83276,18.154346 154.74516,18.154346 C151.527,19.392546 148.30885,20.630745 145.09071,21.868946 C145.09071,22.856 145.09071,23.843056 145.09071,24.830112 C147.31595,23.983229 149.54121,23.136349 151.76646,22.289465 C151.76646,29.414955 151.76646,36.540443 151.76646,43.66593 z" stroke="#000000" stroke-width="0" fill="#000000" fill-opacity="1" />
    <path d="M166.80008,33.83626 C171.26811,33.83626 175.73615,33.83626 180.20416,33.83626 C180.20416,32.948498 180.20416,32.06073 180.20416,31.172966 C175.73615,31.172966 171.26811,31.172966 166.80008,31.172966 C166.80008,32.06073 166.80008,32.948498 166.80008,33.83626 z" stroke="#000000" stroke-width="0" fill="#000000" fill-opacity="1" />
    <path d="M194.85231,32.04905 C192.06636,35.14455 189.28041,38.240047 186.49446,41.33555 C186.49446,42.112343 186.49446,42.889137 186.49446,43.66593 C192.06636,43.66593 197.63826,43.66593 203.21016,43.66593 C203.21016,42.784008 203.21016,41.902084 203.21016,41.020157 C198.9407,41.020157 194.67126,41.020157 190.4018,41.020157 C192.68546,38.543755 194.96912,36.067356 197.25278,33.590958 C197.89525,32.89009 198.50558,32.186302 199.0838,31.479595 C199.66202,30.772884 200.17307,30.057417 200.61694,29.333187 C201.04915,28.608957 201.39375,27.875965 201.65073,27.134214 C201.90771,26.392464 202.0362,25.64195 202.0362,24.882677 C202.0362,23.866419 201.85806,22.926088 201.5018,22.061684 C201.14552,21.19728 200.63446,20.449688 199.96864,19.818907 C199.30281,19.188126 198.48805,18.6946 197.52437,18.338324 C196.56067,17.98205 195.47725,17.803913 194.2741,17.803913 C192.96582,17.803913 191.80061,18.014172 190.7785,18.434694 C189.75641,18.855215 188.89494,19.42175 188.19408,20.134298 C187.4815,20.846848 186.93835,21.679127 186.56454,22.631138 C186.19075,23.58315 186.00385,24.596489 186.00385,25.671152 C187.0902,25.671152 188.17656,25.671152 189.2629,25.671152 C189.2629,24.876835 189.3651,24.158447 189.56952,23.515984 C189.77394,22.873522 190.08641,22.32451 190.50693,21.868946 C190.91577,21.425062 191.43266,21.08047 192.0576,20.835165 C192.68254,20.589863 193.42137,20.46721 194.2741,20.46721 C194.97496,20.46721 195.60283,20.58694 196.15768,20.826405 C196.71254,21.065868 197.18854,21.39002 197.5857,21.798859 C197.97118,22.207697 198.26611,22.689545 198.47054,23.244398 C198.67496,23.799252 198.77718,24.392069 198.77718,25.02285 C198.77718,25.536821 198.71292,26.036188 198.58443,26.520956 C198.45593,27.005722 198.23984,27.516771 197.93613,28.054104 C197.63243,28.603115 197.22942,29.198853 196.72714,29.841316 C196.22484,30.483778 195.5999,31.219688 194.85231,32.04905 z" stroke="#000000" stroke-width="0" fill="#000000" fill-opacity="1" />
    <path d="M216.38647,32.04905 C213.60052,35.14455 210.81458,38.240047 208.02863,41.33555 C208.02863,42.112343 208.02863,42.889137 208.02863,43.66593 C213.60052,43.66593 219.17242,43.66593 224.74432,43.66593 C224.74432,42.784008 224.74432,41.902084 224.74432,41.020157 C220.47487,41.020157 216.20541,41.020157 211.93597,41.020157 C214.21964,38.543755 216.50328,36.067356 218.78694,33.590958 C219.4294,32.89009 220.03975,32.186302 220.61797,31.479595 C221.19618,30.772884 221.70721,30.057417 222.15111,29.333187 C222.58331,28.608957 222.9279,27.875965 223.18488,27.134214 C223.44188,26.392464 223.57037,25.64195 223.57037,24.882677 C223.57037,23.866419 223.39223,22.926088 223.03595,22.061684 C222.67969,21.19728 222.16864,20.449688 221.5028,19.818907 C220.83699,19.188126 220.02223,18.6946 219.05853,18.338324 C218.09485,17.98205 217.01141,17.803913 215.80826,17.803913 C214.49997,17.803913 213.33478,18.014172 212.31268,18.434694 C211.29059,18.855215 210.4291,19.42175 209.72823,20.134298 C209.01569,20.846848 208.4725,21.679127 208.09871,22.631138 C207.72491,23.58315 207.53802,24.596489 207.53802,25.671152 C208.62436,25.671152 209.71071,25.671152 210.79706,25.671152 C210.79706,24.876835 210.89926,24.158447 211.10368,23.515984 C211.3081,22.873522 211.62057,22.32451 212.04109,21.868946 C212.44994,21.425062 212.96683,21.08047 213.59177,20.835165 C214.2167,20.589863 214.95554,20.46721 215.80826,20.46721 C216.50912,20.46721 217.13698,20.58694 217.69183,20.826405 C218.24669,21.065868 218.7227,21.39002 219.11986,21.798859 C219.50533,22.207697 219.8003,22.689545 220.0047,23.244398 C220.20912,23.799252 220.31133,24.392069 220.31133,25.02285 C220.31133,25.536821 220.24709,26.036188 220.11859,26.520956 C219.9901,27.005722 219.77399,27.516771 219.47029,28.054104 C219.16658,28.603115 218.7636,29.198853 218.26129,29.841316 C217.759,30.483778 217.13406,31.219688 216.38647,32.04905 z" stroke="#000000" stroke-width="0" fill="#000000" fill-opacity="1" />
    <path d="M246.64644,33.90635 C246.64644,31.914715 246.64644,29.923084 246.64644,27.931452 C246.64644,26.307775 246.45955,24.868076 246.08575,23.612354 C245.71196,22.356632 245.17462,21.29657 244.47375,20.432167 C243.76118,19.567764 242.89388,18.910698 241.87178,18.460976 C240.84969,18.011251 239.6845,17.78639 238.37619,17.78639 C237.07959,17.78639 235.92023,18.011251 234.89813,18.460976 C233.87604,18.910698 233.01456,19.567764 232.31369,20.432167 C231.60114,21.29657 231.05797,22.356632 230.68417,23.612354 C230.31038,24.868076 230.12347,26.307775 230.12347,27.931452 C230.12347,29.923084 230.12347,31.914715 230.12347,33.90635 C230.12347,35.530025 230.31038,36.969727 230.68417,38.225445 C231.05797,39.481167 231.60114,40.53539 232.31369,41.38811 C233.02625,42.264194 233.89648,42.921257 234.92442,43.359303 C235.95236,43.797344 237.11464,44.016365 238.41124,44.016365 C239.71953,44.016365 240.8818,43.794422 241.89806,43.35054 C242.91432,42.90666 243.77289,42.252518 244.47375,41.38811 C245.17462,40.53539 245.71196,39.481167 246.08575,38.225445 C246.45955,36.969727 246.64644,35.530025 246.64644,33.90635 z M243.31732,25.63611 C240.0057,28.176754 236.6941,30.7174 233.3825,33.258045 C233.3825,32.954338 233.3825,32.656467 233.3825,32.36444 C233.3825,32.072414 233.3825,31.780382 233.3825,31.488354 C233.3825,30.063257 233.3825,28.63816 233.3825,27.213062 C233.3825,26.021587 233.50224,24.973206 233.7417,24.067917 C233.98117,23.162632 234.3462,22.4238 234.83682,21.851423 C235.24567,21.395859 235.74503,21.048346 236.33492,20.808884 C236.92482,20.56942 237.60524,20.449688 238.37619,20.449688 C239.13547,20.449688 239.80421,20.56066 240.38243,20.7826 C240.96065,21.004543 241.44833,21.337454 241.8455,21.781336 C242.25433,22.21354 242.57848,22.753792 242.81795,23.402092 C243.0574,24.050396 243.22388,24.795067 243.31732,25.63611 z M243.3874,30.980227 C243.3874,32.183384 243.3874,33.38654 243.3874,34.589695 C243.3874,35.839573 243.26183,36.92592 243.01068,37.84873 C242.75955,38.771538 242.3653,39.51913 241.82796,40.091507 C241.43082,40.512028 240.94604,40.83326 240.37367,41.055202 C239.8013,41.27714 239.14716,41.38811 238.41124,41.38811 C237.71037,41.38811 237.07959,41.285904 236.5189,41.081482 C235.9582,40.87706 235.47928,40.576275 235.08212,40.179115 C234.64992,39.758595 234.29948,39.224182 234.03082,38.575882 C233.76215,37.927578 233.57526,37.177063 233.47012,36.32434 C236.77588,33.795376 240.08163,31.266413 243.3874,28.73745 C243.3874,29.064522 243.3874,29.47628 243.3874,29.972729 C243.3874,30.469177 243.3874,30.805008 243.3874,30.980227 z" stroke="#000000" stroke-width="0" fill="#000000" fill-opacity="1" />
    <path d="M259.4548,32.04905 C256.66882,35.14455 253.8829,38.240047 251.09695,41.33555 C251.09695,42.112343 251.09695,42.889137 251.09695,43.66593 C256.66882,43.66593 262.24075,43.66593 267.81262,43.66593 C267.81262,42.784008 267.81262,41.902084 267.81262,41.020157 C263.5432,41.020157 259.27374,41.020157 255.00427,41.020157 C257.28793,38.543755 259.5716,36.067356 261.85526,33.590958 C262.4977,32.89009 263.10806,32.186302 263.68628,31.479595 C264.2645,30.772884 264.77554,30.057417 265.21942,29.333187 C265.65164,28.608957 265.99622,27.875965 266.25323,27.134214 C266.5102,26.392464 266.63867,25.64195 266.63867,24.882677 C266.63867,23.866419 266.46057,22.926088 266.10428,22.061684 C265.748,21.19728 265.23694,20.449688 264.57114,19.818907 C263.9053,19.188126 263.09055,18.6946 262.12683,18.338324 C261.16315,17.98205 260.0797,17.803913 258.8766,17.803913 C257.56827,17.803913 256.40308,18.014172 255.38101,18.434694 C254.3589,18.855215 253.49742,19.42175 252.79655,20.134298 C252.084,20.846848 251.54083,21.679127 251.16704,22.631138 C250.79323,23.58315 250.60635,24.596489 250.60635,25.671152 C251.69267,25.671152 252.77904,25.671152 253.86536,25.671152 C253.86536,24.876835 253.96758,24.158447 254.17201,23.515984 C254.37642,22.873522 254.6889,22.32451 255.10942,21.868946 C255.51826,21.425062 256.03516,21.08047 256.66006,20.835165 C257.28503,20.589863 258.02383,20.46721 258.8766,20.46721 C259.57742,20.46721 260.2053,20.58694 260.76013,20.826405 C261.315,21.065868 261.79102,21.39002 262.18817,21.798859 C262.57364,22.207697 262.86862,22.689545 263.07303,23.244398 C263.27747,23.799252 263.37967,24.392069 263.37967,25.02285 C263.37967,25.536821 263.31543,26.036188 263.18692,26.520956 C263.05844,27.005722 262.84235,27.516771 262.5386,28.054104 C262.2349,28.603115 261.8319,29.198853 261.32962,29.841316 C260.82733,30.483778 260.2024,31.219688 259.4548,32.04905 z" stroke="#000000" stroke-width="0" fill="#000000" fill-opacity="1" />
    <path d="M289.71475,33.90635 C289.71475,31.914715 289.71475,29.923084 289.71475,27.931452 C289.71475,26.307775 289.52786,24.868076 289.15405,23.612354 C288.78027,22.356632 288.24292,21.29657 287.54205,20.432167 C286.82953,19.567764 285.9622,18.910698 284.9401,18.460976 C283.918,18.011251 282.7528,17.78639 281.44452,17.78639 C280.14792,17.78639 278.9886,18.011251 277.96646,18.460976 C276.94437,18.910698 276.0829,19.567764 275.38202,20.432167 C274.66946,21.29657 274.12628,22.356632 273.7525,23.612354 C273.3787,24.868076 273.1918,26.307775 273.1918,27.931452 C273.1918,29.923084 273.1918,31.914715 273.1918,33.90635 C273.1918,35.530025 273.3787,36.969727 273.7525,38.225445 C274.12628,39.481167 274.66946,40.53539 275.38202,41.38811 C276.09457,42.264194 276.9648,42.921257 277.99274,43.359303 C279.0207,43.797344 280.18295,44.016365 281.47958,44.016365 C282.78784,44.016365 283.9501,43.794422 284.96637,43.35054 C285.98264,42.90666 286.8412,42.252518 287.54205,41.38811 C288.24292,40.53539 288.78027,39.481167 289.15405,38.225445 C289.52786,36.969727 289.71475,35.530025 289.71475,33.90635 z M286.38562,25.63611 C283.07404,28.176754 279.76245,30.7174 276.45084,33.258045 C276.45084,32.954338 276.45084,32.656467 276.45084,32.36444 C276.45084,32.072414 276.45084,31.780382 276.45084,31.488354 C276.45084,30.063257 276.45084,28.63816 276.45084,27.213062 C276.45084,26.021587 276.57056,24.973206 276.81003,24.067917 C277.0495,23.162632 277.41455,22.4238 277.90515,21.851423 C278.314,21.395859 278.81335,21.048346 279.40323,20.808884 C279.99313,20.56942 280.67355,20.449688 281.44452,20.449688 C282.2038,20.449688 282.87256,20.56066 283.45074,20.7826 C284.02896,21.004543 284.51666,21.337454 284.91382,21.781336 C285.32263,22.21354 285.64682,22.753792 285.88626,23.402092 C286.12573,24.050396 286.2922,24.795067 286.38562,25.63611 z M286.45572,30.980227 C286.45572,32.183384 286.45572,33.38654 286.45572,34.589695 C286.45572,35.839573 286.33017,36.92592 286.079,37.84873 C285.82788,38.771538 285.43362,39.51913 284.8963,40.091507 C284.49915,40.512028 284.01437,40.83326 283.442,41.055202 C282.86963,41.27714 282.21548,41.38811 281.47958,41.38811 C280.7787,41.38811 280.14792,41.285904 279.58722,41.081482 C279.02652,40.87706 278.5476,40.576275 278.15045,40.179115 C277.71823,39.758595 277.3678,39.224182 277.09912,38.575882 C276.83047,37.927578 276.64355,37.177063 276.53845,36.32434 C279.8442,33.795376 283.14996,31.266413 286.45572,28.73745 C286.45572,29.064522 286.45572,29.47628 286.45572,29.972729 C286.45572,30.469177 286.45572,30.805008 286.45572,30.980227 z" stroke="#000000" stroke-width="0" fill="#000000" fill-opacity="1" />
    <path d="M300.82352,43.66593 C304.34537,35.76949 307.86725,27.873045 311.3891,19.976603 C311.3891,19.369184 311.3891,18.761765 311.3891,18.154346 C305.642,18.154346 299.89487,18.154346 294.14774,18.154346 C294.14774,19.10052 294.14774,20.046688 294.14774,20.99286 C298.75012,20.99286 303.35248,20.99286 307.95483,20.99286 C304.44467,28.550552 300.93448,36.108242 297.42432,43.66593 C298.55737,43.66593 299.69046,43.66593 300.82352,43.66593 z" stroke="#000000" stroke-width="0" fill="#000000" fill-opacity="1" />
    <path d="M24.4523,38.166733 C24.4523,39.347763 24.4523,40.528793 24.4523,41.709824 C27.523104,41.709824 30.593904,41.709824 33.66471,41.709824 C33.66471,43.599594 33.66471,45.48937 33.66471,47.37914 C35.082066,47.37914 36.499428,47.37914 37.916786,47.37914 C37.916786,45.48937 37.916786,43.599594 37.916786,41.709824 C40.987587,41.709824 44.05839,41.709824 47.129192,41.709824 C47.129192,40.528793 47.129192,39.347763 47.129192,38.166733 C39.57023,38.166733 32.011265,38.166733 24.4523,38.166733 z" stroke="#000000" stroke-width="0" fill="#000000" fill-opacity="1" />
    <path d="M24.4523,32.497417 C24.4523,33.678448 24.4523,34.85948 24.4523,36.040512 C32.011265,36.040512 39.57023,36.040512 47.129192,36.040512 C47.129192,34.85948 47.129192,33.678448 47.129192,32.497417 C39.57023,32.497417 32.011265,32.497417 24.4523,32.497417 z" stroke="#000000" stroke-width="0" fill="#000000" fill-opacity="1" />
  </g>
</svg>